<svg width="56" height="56" viewBox="0 0 56 56" fill="none" xmlns="http://www.w3.org/2000/svg">
<g id="hugeicons:bot">
<g id="Group">
<path id="Vector" d="M9.33335 36.1668C8.09568 36.1668 6.90869 35.6752 6.03352 34.8C5.15835 33.9248 4.66669 32.7378 4.66669 31.5002C4.66669 30.2625 5.15835 29.0755 6.03352 28.2003C6.90869 27.3252 8.09568 26.8335 9.33335 26.8335M46.6667 36.1668C47.9044 36.1668 49.0914 35.6752 49.9665 34.8C50.8417 33.9248 51.3334 32.7378 51.3334 31.5002C51.3334 30.2625 50.8417 29.0755 49.9665 28.2003C49.0914 27.3252 47.9044 26.8335 46.6667 26.8335M16.3334 16.3335V9.3335M39.6667 16.3335V9.3335" stroke="white" stroke-width="1.5" stroke-linecap="round" stroke-linejoin="round"/>
<path id="Vector_2" d="M16.3333 9.33341C17.622 9.33341 18.6667 8.28875 18.6667 7.00008C18.6667 5.71142 17.622 4.66675 16.3333 4.66675C15.0447 4.66675 14 5.71142 14 7.00008C14 8.28875 15.0447 9.33341 16.3333 9.33341Z" stroke="white" stroke-width="1.5" stroke-linecap="round" stroke-linejoin="round"/>
<path id="Vector_3" d="M39.6667 9.33341C40.9554 9.33341 42 8.28875 42 7.00008C42 5.71142 40.9554 4.66675 39.6667 4.66675C38.378 4.66675 37.3334 5.71142 37.3334 7.00008C37.3334 8.28875 38.378 9.33341 39.6667 9.33341Z" stroke="white" stroke-width="1.5" stroke-linecap="round" stroke-linejoin="round"/>
<path id="Vector_4" d="M31.5 16.3335H24.5C17.9013 16.3335 14.5997 16.3335 12.551 18.4545C10.5023 20.5755 10.5 23.9892 10.5 30.8165C10.5 37.6438 10.5 41.0575 12.551 43.1785C14.5997 45.2995 17.9013 45.2995 24.5 45.2995H26.8917C28.7397 45.2995 29.3907 45.6798 30.6647 47.0658C32.0717 48.5988 34.251 50.6452 36.2227 51.1212C39.025 51.7978 39.34 50.8622 38.7147 48.1905C38.5373 47.4298 38.0917 46.2142 38.5607 45.5048C38.8243 45.1082 39.2607 45.0102 40.1357 44.8142C41.5147 44.5062 42.6533 44.0022 43.449 43.1785C45.5 41.0552 45.5 37.6438 45.5 30.8165C45.5 23.9892 45.5 20.5755 43.449 18.4545C41.4003 16.3335 38.0987 16.3335 31.5 16.3335Z" stroke="white" stroke-width="1.5" stroke-linecap="round" stroke-linejoin="round"/>
<path id="Vector_5" d="M22.1667 35.0001C23.4967 36.4164 25.6153 37.3334 28 37.3334C30.3847 37.3334 32.5033 36.4164 33.8333 35.0001M21.021 25.6667H21M35.021 25.6667H35" stroke="white" stroke-width="1.5" stroke-linecap="round" stroke-linejoin="round"/>
</g>
</g>
</svg>
