<svg width="48" height="48" viewBox="0 0 48 48" fill="none" xmlns="http://www.w3.org/2000/svg">
<mask id="mask0_1_436" style="mask-type:luminance" maskUnits="userSpaceOnUse" x="3" y="6" width="42" height="36">
<path d="M5 10C5 9.46957 5.21071 8.96086 5.58579 8.58579C5.96086 8.21071 6.46957 8 7 8H41C41.5304 8 42.0391 8.21071 42.4142 8.58579C42.7893 8.96086 43 9.46957 43 10V38C43 38.5304 42.7893 39.0391 42.4142 39.4142C42.0391 39.7893 41.5304 40 41 40H7C6.46957 40 5.96086 39.7893 5.58579 39.4142C5.21071 39.0391 5 38.5304 5 38V10Z" stroke="white" stroke-width="4" stroke-linecap="round" stroke-linejoin="round"/>
<path d="M14.5 18C14.8978 18 15.2794 17.842 15.5607 17.5607C15.842 17.2794 16 16.8978 16 16.5C16 16.1022 15.842 15.7206 15.5607 15.4393C15.2794 15.158 14.8978 15 14.5 15C14.1022 15 13.7206 15.158 13.4393 15.4393C13.158 15.7206 13 16.1022 13 16.5C13 16.8978 13.158 17.2794 13.4393 17.5607C13.7206 17.842 14.1022 18 14.5 18Z" stroke="white" stroke-width="4" stroke-linecap="round" stroke-linejoin="round"/>
<path d="M15 24L20 28L26 21L43 34V38C43 38.5304 42.7893 39.0391 42.4142 39.4142C42.0391 39.7893 41.5304 40 41 40H7C6.46957 40 5.96086 39.7893 5.58579 39.4142C5.21071 39.0391 5 38.5304 5 38V34L15 24Z" fill="#555555" stroke="white" stroke-width="4" stroke-linejoin="round"/>
</mask>
<g mask="url(#mask0_1_436)">
<path d="M0 0H48V48H0V0Z" fill="#FF6B00"/>
</g>
</svg>
