<?xml version="1.0" encoding="UTF-8" standalone="no"?>
<svg
   width="92"
   height="89"
   viewBox="0 0 92 89"
   fill="none"
   version="1.1"
   id="svg2"
   xmlns="http://www.w3.org/2000/svg"
   xmlns:svg="http://www.w3.org/2000/svg">
  <defs
     id="defs2" />
  <path
     d="m 12,72.076271 c 0,-4.6413 1.7911,-9.0925 4.9792,-12.3744 3.1881,-3.2819 7.5121,-5.1256 12.0208,-5.1256 h 34 c 4.5087,0 8.8327,1.8437 12.0208,5.1256 3.1881,3.2819 4.9792,7.7331 4.9792,12.3744 0,2.3206 -0.8955,4.5462 -2.4896,6.1872 -1.5941,1.6409 -3.7561,2.5628 -6.0104,2.5628 h -51 c -2.2543,0 -4.4163,-0.9219 -6.0104,-2.5628 C 12.8955,76.622471 12,74.396871 12,72.076271 Z"
     stroke="#ff6b00"
     stroke-width="2"
     stroke-linejoin="round"
     id="path1" />
  <path
     d="m 46,37.076271 c 7.0416,0 12.75,-5.8763 12.75,-13.125 0,-7.2487 -5.7084,-13.125 -12.75,-13.125 -7.0416,0 -12.75,5.8763 -12.75,13.125 0,7.2487 5.7084,13.125 12.75,13.125 z"
     stroke="#ff6b00"
     stroke-width="2"
     id="path2" />
</svg>
