<svg width="102" height="105" viewBox="0 0 102 105" fill="none" xmlns="http://www.w3.org/2000/svg">
<path d="M17 78.75C17 74.1087 18.7911 69.6575 21.9792 66.3756C25.1673 63.0937 29.4913 61.25 34 61.25H68C72.5087 61.25 76.8327 63.0937 80.0208 66.3756C83.2089 69.6575 85 74.1087 85 78.75C85 81.0706 84.1045 83.2962 82.5104 84.9372C80.9163 86.5781 78.7543 87.5 76.5 87.5H25.5C23.2457 87.5 21.0837 86.5781 19.4896 84.9372C17.8955 83.2962 17 81.0706 17 78.75Z" stroke="#FF6B00" stroke-width="2" stroke-linejoin="round"/>
<path d="M51 43.75C58.0416 43.75 63.75 37.8737 63.75 30.625C63.75 23.3763 58.0416 17.5 51 17.5C43.9584 17.5 38.25 23.3763 38.25 30.625C38.25 37.8737 43.9584 43.75 51 43.75Z" stroke="#FF6B00" stroke-width="2"/>
</svg>
