<?xml version="1.0" encoding="UTF-8" standalone="no"?>
<svg
   width="257"
   height="122"
   viewBox="0 0 257 122"
   fill="none"
   version="1.1"
   id="svg3"
   xml:space="preserve"
   xmlns="http://www.w3.org/2000/svg"
   xmlns:svg="http://www.w3.org/2000/svg"><g
     filter="url(#filter0_d_1_20)"
     id="g1"><path
       d="M 0.605,88.88 6.877,72.624 c 3.1573,1.3653 6.1867,2.3893 9.088,3.072 2.9013,0.6827 5.8027,1.024 8.704,1.024 2.9867,0 5.4613,-0.256 7.424,-0.768 2.048,-0.5973 3.584,-1.4507 4.608,-2.56 1.024,-1.1093 1.536,-2.432 1.536,-3.968 0,-1.4507 -0.4693,-3.456 -1.408,-6.016 C 35.9757,60.848 34.397,57.52 32.093,53.424 29.789,49.2427 26.4183,44.08 21.981,37.936 L 37.213,27.824 c 4.096,5.8027 7.6373,11.4773 10.624,17.024 2.9867,5.4613 5.2907,10.5813 6.912,15.36 1.7067,4.6933 2.56,8.832 2.56,12.416 0,4.4373 -1.1947,8.32 -3.584,11.648 -2.304,3.2427 -5.76,5.8027 -10.368,7.68 -4.5227,1.8773 -10.112,2.816 -16.768,2.816 -2.4747,0 -5.248,-0.2133 -8.32,-0.64 C 15.197,93.7013 12.0823,93.0613 8.925,92.208 5.853,91.3547 3.07967,90.2453 0.605,88.88 Z M 72.49,94 69.802,0.303993 h 17.92 L 90.41,94 Z m 52.664,-17.28 c 3.84,0 6.784,-0.3413 8.832,-1.024 2.048,-0.6827 3.456,-1.5787 4.224,-2.688 0.768,-1.1093 1.152,-2.304 1.152,-3.584 0,-2.048 -0.597,-4.4373 -1.792,-7.168 -1.109,-2.7307 -2.517,-5.5893 -4.224,-8.576 -1.707,-2.9867 -3.499,-5.8453 -5.376,-8.576 -1.792,-2.7307 -3.413,-5.12 -4.864,-7.168 l 15.232,-10.112 c 3.669,4.9493 6.827,9.856 9.472,14.72 2.645,4.7787 4.779,9.216 6.4,13.312 1.707,4.096 2.901,7.5947 3.584,10.496 0.683,2.7307 1.707,4.864 3.072,6.4 1.451,1.4507 3.115,2.4747 4.992,3.072 1.877,0.5973 3.755,0.896 5.632,0.896 3.243,0 5.547,0.8533 6.912,2.56 1.451,1.6213 2.176,3.6693 2.176,6.144 0,2.6453 -0.896,4.864 -2.688,6.656 -1.707,1.7067 -4.267,2.56 -7.68,2.56 -3.755,0 -7.04,-0.512 -9.856,-1.536 -2.816,-1.024 -5.205,-2.6453 -7.168,-4.864 -1.963,-2.2187 -3.627,-5.0347 -4.992,-8.448 l 7.808,1.664 c -0.683,2.3893 -2.261,4.608 -4.736,6.656 -2.389,1.9627 -5.589,3.584 -9.6,4.864 -3.925,1.1947 -8.576,1.792 -13.952,1.792 -2.56,0 -5.419,-0.2133 -8.576,-0.64 -3.072,-0.4267 -6.144,-1.0667 -9.216,-1.92 -2.987,-0.8533 -5.717,-1.9627 -8.192,-3.328 l 6.272,-16.256 c 3.157,1.3653 6.187,2.3893 9.088,3.072 2.987,0.6827 5.675,1.024 8.064,1.024 z m 45.221,17.92 1.28,-17.92 c 1.963,0 3.627,-0.4693 4.992,-1.408 1.451,-1.024 2.944,-2.688 4.48,-4.992 1.536,-2.3893 3.328,-5.5893 5.376,-9.6 2.56,-5.12 5.205,-9.1307 7.936,-12.032 2.816,-2.9013 5.675,-4.9493 8.576,-6.144 2.987,-1.28 5.973,-1.92 8.96,-1.92 3.755,0 7.253,0.8107 10.496,2.432 3.243,1.6213 6.059,3.84 8.448,6.656 2.389,2.7307 4.224,5.888 5.504,9.472 1.365,3.4987 2.048,7.1253 2.048,10.88 0,4.5227 -0.981,8.6187 -2.944,12.288 -1.877,3.584 -4.523,6.4427 -7.936,8.576 -3.328,2.048 -7.168,3.072 -11.52,3.072 -3.669,0 -7.936,-0.64 -12.8,-1.92 -4.864,-1.28 -9.984,-3.968 -15.36,-8.064 l 6.528,-15.488 c 3.84,2.6453 7.424,4.5653 10.752,5.76 3.413,1.1947 6.229,1.792 8.448,1.792 1.707,0 3.115,-0.1707 4.224,-0.512 1.109,-0.3413 1.92,-0.896 2.432,-1.664 0.512,-0.768 0.768,-1.792 0.768,-3.072 0,-1.792 -0.427,-3.6267 -1.28,-5.504 -0.853,-1.8773 -2.005,-3.456 -3.456,-4.736 -1.365,-1.3653 -2.987,-2.048 -4.864,-2.048 -1.792,0 -3.328,0.6827 -4.608,2.048 -1.195,1.28 -2.389,3.1573 -3.584,5.632 -1.109,2.3893 -2.475,5.2053 -4.096,8.448 -1.963,3.9253 -3.883,7.2107 -5.76,9.856 -1.877,2.56 -3.883,4.608 -6.016,6.144 -2.048,1.4507 -4.48,2.4747 -7.296,3.072 -2.731,0.5973 -5.973,0.896 -9.728,0.896 z"
       fill="#ffffff"
       id="path1" /></g><defs
     id="defs3"><filter
       id="filter0_d_1_20"
       x="0.60499603"
       y="0.30395499"
       width="256.366"
       height="110.964"
       filterUnits="userSpaceOnUse"
       color-interpolation-filters="sRGB"><feFlood
         flood-opacity="0"
         result="BackgroundImageFix"
         id="feFlood1" /><feColorMatrix
         in="SourceAlpha"
         type="matrix"
         values="0 0 0 0 0 0 0 0 0 0 0 0 0 0 0 0 0 0 127 0"
         result="hardAlpha"
         id="feColorMatrix1" /><feOffset
         dx="14"
         dy="12"
         id="feOffset1" /><feGaussianBlur
         stdDeviation="2.25"
         id="feGaussianBlur1" /><feComposite
         in2="hardAlpha"
         operator="out"
         id="feComposite1" /><feColorMatrix
         type="matrix"
         values="0 0 0 0 0 0 0 0 0 0 0 0 0 0 0 0 0 0 0.3 0"
         id="feColorMatrix2" /><feBlend
         mode="normal"
         in2="BackgroundImageFix"
         result="effect1_dropShadow_1_20"
         id="feBlend2" /><feBlend
         mode="normal"
         in="SourceGraphic"
         in2="effect1_dropShadow_1_20"
         result="shape"
         id="feBlend3" /></filter></defs><g
     style="fill:none"
     id="g3"
     transform="translate(210.9797,95.842142)"><path
       d="M 0.12,18.424 V 9.464 L 30.328,0.504 V 9.72 Z"
       fill="#ff6b00"
       id="path1-3" /></g></svg>
