<svg width="38" height="38" viewBox="0 0 38 38" fill="none" xmlns="http://www.w3.org/2000/svg">
<path d="M33.25 31.1125V28.5H10.925L12.35 25.8875L34.2 23.75L38 9.5H8.7875L7.125 2.375H0V4.75H5.225L10.2125 24.7L7.125 30.875V34.4375C7.125 36.3375 8.7875 38 10.6875 38C12.5875 38 14.25 36.3375 14.25 34.4375C14.25 32.5375 12.5875 30.875 10.6875 30.875H28.5V34.4375C28.5 36.3375 30.1625 38 32.0625 38C33.9625 38 35.625 36.3375 35.625 34.4375C35.625 32.775 34.675 31.5875 33.25 31.1125Z" fill="white"/>
</svg>
