<svg width="15" height="15" viewBox="0 0 15 15" fill="none" xmlns="http://www.w3.org/2000/svg">
<path fill-rule="evenodd" clip-rule="evenodd" d="M8.0675 0.988128C8.01747 0.879714 7.93744 0.787897 7.83687 0.723541C7.7363 0.659186 7.6194 0.624985 7.5 0.624985C7.3806 0.624985 7.2637 0.659186 7.16313 0.723541C7.06256 0.787897 6.98252 0.879714 6.9325 0.988128L5.13875 4.87563L0.888124 5.38C0.76953 5.39401 0.65743 5.44169 0.565092 5.51742C0.472753 5.59314 0.404041 5.69373 0.367088 5.80729C0.330134 5.92084 0.326487 6.04261 0.356576 6.15817C0.386666 6.27374 0.449233 6.37826 0.536874 6.45938L3.68062 9.36563L2.84625 13.5656C2.82307 13.6827 2.83391 13.804 2.87747 13.9151C2.92102 14.0262 2.99549 14.1225 3.09205 14.1927C3.18862 14.2628 3.30325 14.3038 3.42239 14.3109C3.54153 14.318 3.6602 14.2907 3.76437 14.2325L7.5 12.1413L11.2356 14.2325C11.3399 14.291 11.4587 14.3184 11.578 14.3114C11.6973 14.3044 11.8122 14.2634 11.9088 14.1931C12.0056 14.1228 12.0801 14.0263 12.1236 13.915C12.1671 13.8037 12.1778 13.6822 12.1544 13.565L11.32 9.36625L14.4631 6.45938C14.5508 6.37826 14.6133 6.27374 14.6434 6.15817C14.6735 6.04261 14.6699 5.92084 14.6329 5.80729C14.596 5.69373 14.5272 5.59314 14.4349 5.51742C14.3426 5.44169 14.2305 5.39401 14.1119 5.38L9.86063 4.875L8.0675 0.988128Z" fill="#FF6B00" fill-opacity="0.8"/>
</svg>
