<svg width="30" height="30" viewBox="0 0 30 30" fill="none" xmlns="http://www.w3.org/2000/svg">
<path d="M14.1 24.2416L25.194 13.1476C23.3277 12.3679 21.6327 11.2294 20.205 9.79657C18.7715 8.36864 17.6325 6.67304 16.8525 4.80607L5.75853 15.9001C4.89303 16.7656 4.45953 17.1991 4.08753 17.6761C3.64862 18.2393 3.27193 18.8483 2.96403 19.4926C2.70453 20.0386 2.51103 20.6206 2.12403 21.7816L0.0810284 27.9061C-0.013001 28.1865 -0.0269516 28.4876 0.0407442 28.7755C0.10844 29.0634 0.255099 29.3267 0.464236 29.5359C0.673372 29.745 0.936696 29.8917 1.22461 29.9594C1.51252 30.0271 1.81361 30.0131 2.09403 29.9191L8.21853 27.8761C9.38103 27.4891 9.96153 27.2956 10.5075 27.0361C11.1545 26.7281 11.76 26.3536 12.324 25.9126C12.801 25.5406 13.2345 25.1071 14.1 24.2416ZM28.272 10.0696C29.3782 8.96342 29.9996 7.46315 29.9996 5.89882C29.9996 4.33448 29.3782 2.83422 28.272 1.72807C27.1659 0.621918 25.6656 0.000488293 24.1013 0.000488281C22.5369 0.00048827 21.0367 0.621918 19.9305 1.72807L18.6 3.05857L18.657 3.22507C19.3125 5.10124 20.3855 6.80405 21.795 8.20507C23.2379 9.65679 25.0004 10.7509 26.9415 11.4001L28.272 10.0696Z" fill="#FF6B00"/>
</svg>
